<svg width="36" height="36" viewBox="0 0 36 36" fill="none" xmlns="http://www.w3.org/2000/svg">
<g clip-path="url(#clip0_126_235)">
<path d="M27.09 34.485H29.58C30.84 34.485 31.875 33.525 32.025 32.295L34.5 7.575H27V1.5H24.045V7.575H16.59L17.04 11.085C19.605 11.79 22.005 13.065 23.445 14.475C25.605 16.605 27.09 18.81 27.09 22.41V34.485V34.485ZM1.5 32.985V31.5H24.045V32.985C24.045 33.81 23.37 34.485 22.53 34.485H3.015C2.175 34.485 1.5 33.81 1.5 32.985V32.985ZM24.045 22.485C24.045 10.485 1.5 10.485 1.5 22.485H24.045ZM1.53 25.5H24.03V28.5H1.53V25.5Z" fill="#668AB4"/>
</g>
<defs>
<clipPath id="clip0_126_235">
<rect width="36" height="36" fill="white"/>
</clipPath>
</defs>
</svg>
