<svg width="37" height="37" viewBox="0 0 37 37" fill="none" xmlns="http://www.w3.org/2000/svg">
<g clip-path="url(#clip0_126_225)">
<path d="M6.93748 18.5C9.06608 18.5 10.7916 16.7744 10.7916 14.6458C10.7916 12.5172 9.06608 10.7917 6.93748 10.7917C4.80888 10.7917 3.08331 12.5172 3.08331 14.6458C3.08331 16.7744 4.80888 18.5 6.93748 18.5Z" fill="#668AB4"/>
<path d="M13.875 12.3333C16.0036 12.3333 17.7291 10.6078 17.7291 8.47917C17.7291 6.35057 16.0036 4.625 13.875 4.625C11.7464 4.625 10.0208 6.35057 10.0208 8.47917C10.0208 10.6078 11.7464 12.3333 13.875 12.3333Z" fill="#668AB4"/>
<path d="M23.125 12.3333C25.2536 12.3333 26.9791 10.6078 26.9791 8.47917C26.9791 6.35057 25.2536 4.625 23.125 4.625C20.9964 4.625 19.2708 6.35057 19.2708 8.47917C19.2708 10.6078 20.9964 12.3333 23.125 12.3333Z" fill="#668AB4"/>
<path d="M30.0625 18.5C32.1911 18.5 33.9166 16.7744 33.9166 14.6458C33.9166 12.5172 32.1911 10.7917 30.0625 10.7917C27.9339 10.7917 26.2083 12.5172 26.2083 14.6458C26.2083 16.7744 27.9339 18.5 30.0625 18.5Z" fill="#668AB4"/>
<path d="M26.7325 22.9092C25.3913 21.3367 24.2658 19.9954 22.9092 18.4229C22.2 17.5904 21.2904 16.7579 20.2113 16.3879C20.0417 16.3263 19.8721 16.28 19.7025 16.2492C19.3171 16.1875 18.9009 16.1875 18.5 16.1875C18.0992 16.1875 17.6829 16.1875 17.2821 16.2646C17.1125 16.2954 16.9429 16.3417 16.7734 16.4033C15.6942 16.7733 14.8 17.6058 14.0754 18.4383C12.7342 20.0108 11.6088 21.3521 10.2521 22.9246C8.23252 24.9442 5.75043 27.1796 6.21293 30.3092C6.66002 31.8817 7.78543 33.4387 9.80502 33.8858C10.9304 34.1171 14.5225 33.2075 18.3458 33.2075H18.6233C22.4467 33.2075 26.0388 34.1017 27.1642 33.8858C29.1838 33.4387 30.3092 31.8662 30.7563 30.3092C31.2342 27.1642 28.7521 24.9287 26.7325 22.9092V22.9092Z" fill="#668AB4"/>
</g>
<defs>
<clipPath id="clip0_126_225">
<rect width="37" height="37" fill="white"/>
</clipPath>
</defs>
</svg>
