<svg width="30" height="30" viewBox="0 0 30 30" fill="none" xmlns="http://www.w3.org/2000/svg">
<g clip-path="url(#clip0_127_377)">
<path d="M23.925 16.175C23.975 15.8 24 15.4125 24 15C24 14.6 23.975 14.2 23.9125 13.825L26.45 11.85C26.675 11.675 26.7375 11.3375 26.6 11.0875L24.2 6.9375C24.05 6.6625 23.7375 6.575 23.4625 6.6625L20.475 7.8625C19.85 7.3875 19.1875 6.9875 18.45 6.6875L18 3.5125C17.95 3.2125 17.7 3 17.4 3H12.6C12.3 3 12.0625 3.2125 12.0125 3.5125L11.5625 6.6875C10.825 6.9875 10.15 7.4 9.53751 7.8625L6.55001 6.6625C6.27501 6.5625 5.96251 6.6625 5.81251 6.9375L3.42502 11.0875C3.27502 11.35 3.32501 11.675 3.57501 11.85L6.11251 13.825C6.05001 14.2 6.00002 14.6125 6.00002 15C6.00002 15.3875 6.02501 15.8 6.08751 16.175L3.55001 18.15C3.32501 18.325 3.26252 18.6625 3.40002 18.9125L5.80001 23.0625C5.95001 23.3375 6.26251 23.425 6.53751 23.3375L9.52501 22.1375C10.15 22.6125 10.8125 23.0125 11.55 23.3125L12 26.4875C12.0625 26.7875 12.3 27 12.6 27H17.4C17.7 27 17.95 26.7875 17.9875 26.4875L18.4375 23.3125C19.175 23.0125 19.85 22.6125 20.4625 22.1375L23.45 23.3375C23.725 23.4375 24.0375 23.3375 24.1875 23.0625L26.5875 18.9125C26.7375 18.6375 26.675 18.325 26.4375 18.15L23.925 16.175ZM15 19.5C12.525 19.5 10.5 17.475 10.5 15C10.5 12.525 12.525 10.5 15 10.5C17.475 10.5 19.5 12.525 19.5 15C19.5 17.475 17.475 19.5 15 19.5Z" fill="#989898"/>
</g>
<defs>
<clipPath id="clip0_127_377">
<rect width="30" height="30" fill="white"/>
</clipPath>
</defs>
</svg>
