<svg width="168" height="120" viewBox="0 0 168 120" fill="none" xmlns="http://www.w3.org/2000/svg">
<path d="M69.8227 69.9119L67.7817 73.9974L68.9138 74.563L70.9549 70.4775L69.8227 69.9119Z" fill="#0CBC8B"/>
<path d="M86.3871 59.1625L85.175 59.5259L86.4864 63.9005L87.6985 63.5372L86.3871 59.1625Z" fill="#367CFF"/>
<path d="M86.7952 61.659L82.4817 58.3801C82.3869 58.3081 82.2781 58.2566 82.1623 58.2289C82.0465 58.2012 81.9262 58.198 81.8091 58.2193C81.692 58.2406 81.5806 58.2861 81.482 58.3529C81.3834 58.4196 81.2998 58.5061 81.2365 58.607C81.1254 58.7967 81.0888 59.021 81.1337 59.2362C81.1785 59.4515 81.3017 59.6425 81.4793 59.7721L82.4043 60.4751L78.481 59.5993C78.0466 59.4943 77.4461 59.6435 77.3605 60.1386C77.3152 60.327 77.3349 60.5252 77.4167 60.7009C77.4984 60.8766 77.6373 61.0195 77.8106 61.1061C77.8086 61.11 77.807 61.114 77.8059 61.1182C77.8056 61.1214 77.8056 61.1247 77.8059 61.128L77.1357 60.9661C77.0116 60.9362 76.8824 60.9344 76.7574 60.9607C76.6325 60.9871 76.515 61.041 76.4136 61.1185C76.3121 61.196 76.2292 61.2952 76.1709 61.4089C76.1127 61.5225 76.0805 61.6477 76.0768 61.7753C76.0749 61.9764 76.1422 62.172 76.2672 62.3295C76.3923 62.4869 76.5677 62.5967 76.764 62.6403L77.0487 62.7091C77.0506 62.7183 77.054 62.7271 77.0589 62.7351C76.8554 62.7333 76.658 62.8039 76.5018 62.9343C76.3457 63.0648 76.241 63.2465 76.2065 63.447C76.1752 63.6674 76.2281 63.8916 76.3548 64.0748C76.4815 64.2579 76.6725 64.3866 76.8899 64.4351L77.5983 64.6062C77.5866 64.6109 77.5763 64.6182 77.568 64.6277C77.5598 64.6372 77.5539 64.6485 77.5508 64.6606C77.548 64.6754 77.5495 64.6906 77.5551 64.7045C77.3735 64.7531 77.2128 64.8602 77.0979 65.009C76.983 65.1579 76.9202 65.3404 76.9192 65.5285C76.9221 65.726 76.9916 65.9168 77.1164 66.0699C77.2413 66.223 77.4141 66.3295 77.607 66.3722L83.5827 67.8159C84.4187 68.0177 85.2959 67.9653 86.102 67.6655C86.9081 67.3656 87.6063 66.832 88.1071 66.1328V66.1328C88.5389 65.5299 88.7186 64.7824 88.608 64.0491C88.4974 63.3159 88.1052 62.6546 87.5148 62.2059L86.7952 61.659Z" fill="#E98862"/>
<g opacity="0.2">
<path d="M81.6897 61.9924C81.6847 62.0124 81.6721 62.0297 81.6545 62.0406C81.6369 62.0514 81.6158 62.055 81.5956 62.0504L77.8653 61.212C77.8552 61.2097 77.8456 61.2054 77.8371 61.1994C77.8286 61.1935 77.8214 61.1859 77.8158 61.1771C77.8103 61.1683 77.8065 61.1585 77.8048 61.1483C77.803 61.138 77.8033 61.1275 77.8055 61.1174C77.8078 61.1072 77.8121 61.0977 77.8181 61.0892C77.8241 61.0807 77.8317 61.0734 77.8405 61.0679C77.8492 61.0623 77.859 61.0586 77.8693 61.0568C77.8795 61.055 77.89 61.0553 77.9001 61.0576L81.6302 61.896C81.6404 61.8983 81.65 61.9026 81.6586 61.9086C81.6671 61.9146 81.6743 61.9222 81.6799 61.931C81.6854 61.9399 81.6892 61.9497 81.6909 61.96C81.6927 61.9703 81.6924 61.9808 81.69 61.9909L81.6897 61.9924Z" fill="#0C0C0C"/>
</g>
<g opacity="0.2">
<path d="M81.3656 63.6477C81.3606 63.668 81.3479 63.6854 81.3301 63.6963C81.3123 63.7071 81.291 63.7106 81.2707 63.7058L77.1078 62.7709C77.0976 62.7686 77.088 62.7643 77.0795 62.7583C77.0709 62.7523 77.0637 62.7447 77.0581 62.7358C77.0526 62.727 77.0488 62.7172 77.0471 62.7069C77.0453 62.6966 77.0456 62.6861 77.048 62.6759C77.0532 62.6558 77.066 62.6384 77.0836 62.6273C77.1012 62.6161 77.1224 62.6122 77.1429 62.6161L81.3058 63.5511C81.316 63.5534 81.3256 63.5576 81.3341 63.5636C81.3427 63.5696 81.3499 63.5773 81.3555 63.5861C81.361 63.5949 81.3648 63.6048 81.3665 63.615C81.3683 63.6253 81.368 63.6358 81.3656 63.646V63.6477Z" fill="#0C0C0C"/>
</g>
<g opacity="0.2">
<path d="M81.025 65.4426C81.02 65.4627 81.0073 65.48 80.9897 65.4908C80.9722 65.5017 80.951 65.5052 80.9308 65.5007L77.6102 64.7549C77.5897 64.7504 77.5719 64.7378 77.5606 64.7201C77.5494 64.7024 77.5457 64.6809 77.5503 64.6604C77.5549 64.64 77.5674 64.6221 77.5851 64.6109C77.6029 64.5997 77.6243 64.596 77.6448 64.6006L80.9655 65.3463C80.9757 65.3485 80.9853 65.3528 80.9939 65.3588C81.0024 65.3648 81.0097 65.3724 81.0152 65.3813C81.0208 65.3901 81.0246 65.3999 81.0263 65.4102C81.0281 65.4205 81.0278 65.431 81.0254 65.4412L81.025 65.4426Z" fill="#0C0C0C"/>
</g>
<path d="M66.3162 39.106L68.7246 34.2524C68.7775 34.1457 68.852 34.0513 68.9435 33.975C69.0349 33.8987 69.1412 33.8424 69.2556 33.8094C69.37 33.7765 69.49 33.7678 69.608 33.7838C69.726 33.7998 69.8393 33.8402 69.9408 33.9024C70.1247 34.023 70.2573 34.2077 70.3129 34.4205C70.3684 34.6333 70.3429 34.8592 70.2414 35.0543L69.7249 36.095L72.8507 33.5682C73.1933 33.281 73.7975 33.148 74.0941 33.5536C74.2184 33.7022 74.2887 33.8886 74.2935 34.0824C74.2983 34.2761 74.2373 34.4657 74.1205 34.6203C74.124 34.6229 74.1272 34.6258 74.1302 34.629C74.1319 34.6318 74.1334 34.6347 74.1347 34.6377L74.6633 34.1948C74.7612 34.1128 74.8762 34.0538 74.9998 34.0219C75.1234 33.99 75.2526 33.9862 75.378 34.0105C75.5033 34.0349 75.6216 34.087 75.7243 34.1629C75.8269 34.2388 75.9114 34.3366 75.9714 34.4493C76.0624 34.6287 76.089 34.8338 76.0469 35.0304C76.0048 35.2271 75.8964 35.4033 75.74 35.5296L75.515 35.718C75.5175 35.727 75.5183 35.7364 75.5174 35.7457C75.6988 35.6537 75.9071 35.6292 76.1049 35.6767C76.3027 35.7241 76.4772 35.8404 76.5972 36.0047C76.7232 36.1884 76.7752 36.4128 76.743 36.6332C76.7107 36.8536 76.5965 37.0537 76.4232 37.1935L75.8646 37.6613C75.8772 37.6602 75.8898 37.6622 75.9015 37.667C75.9132 37.6717 75.9235 37.6793 75.9317 37.6889C75.9408 37.7008 75.9463 37.7152 75.9475 37.7301C76.1319 37.693 76.3233 37.7175 76.4924 37.7999C76.6615 37.8822 76.7988 38.0179 76.8832 38.1859C76.9684 38.3642 76.9908 38.566 76.947 38.7586C76.9031 38.9512 76.7956 39.1234 76.6417 39.2472L71.929 43.1949C71.2698 43.7472 70.4606 44.09 69.6052 44.1793C68.7498 44.2687 67.8873 44.1006 67.1281 43.6965C66.4736 43.3481 65.9806 42.7583 65.754 42.0523C65.5274 41.3464 65.5849 40.5799 65.9144 39.9156L66.3162 39.106Z" fill="#E98862"/>
<g opacity="0.2">
<path d="M71.0385 37.1368C71.0519 37.1527 71.0711 37.1627 71.0918 37.1646C71.1125 37.1666 71.1332 37.1602 71.1493 37.147L74.1192 34.7396C74.1355 34.7264 74.1459 34.7072 74.1481 34.6864C74.1503 34.6655 74.1441 34.6446 74.1309 34.6283C74.1177 34.612 74.0985 34.6016 74.0776 34.5995C74.0568 34.5973 74.0359 34.6035 74.0196 34.6167L71.0496 37.0241C71.0334 37.0373 71.0232 37.0563 71.021 37.0771C71.0188 37.0978 71.0249 37.1186 71.0379 37.1349L71.0385 37.1368Z" fill="#0C0C0C"/>
</g>
<g opacity="0.2">
<path d="M72.0641 38.4761C72.0775 38.492 72.0967 38.502 72.1174 38.5039C72.1381 38.5058 72.1588 38.4994 72.1749 38.4862L75.4894 35.7995C75.5055 35.7863 75.5158 35.7673 75.5179 35.7465C75.5201 35.7258 75.514 35.7051 75.5009 35.6888C75.4874 35.6732 75.4684 35.6634 75.4479 35.6612C75.4273 35.659 75.4067 35.6647 75.3902 35.6771L72.0746 38.3633C72.0584 38.3764 72.0481 38.3955 72.0459 38.4162C72.0437 38.437 72.0498 38.4577 72.0629 38.474L72.0641 38.4761Z" fill="#0C0C0C"/>
</g>
<g opacity="0.2">
<path d="M73.1666 39.9327C73.18 39.9487 73.1991 39.9587 73.2198 39.9606C73.2406 39.9625 73.2612 39.9562 73.2773 39.943L75.9213 37.7999C75.9376 37.7867 75.9479 37.7675 75.9501 37.7467C75.9523 37.7258 75.9461 37.7049 75.9329 37.6886C75.9197 37.6723 75.9005 37.6619 75.8796 37.6598C75.8588 37.6576 75.8379 37.6638 75.8216 37.677L73.177 39.8201C73.1609 39.8333 73.1506 39.8523 73.1484 39.873C73.1462 39.8938 73.1523 39.9145 73.1653 39.9308L73.1666 39.9327Z" fill="#0C0C0C"/>
</g>
<path d="M12.267 34.9445C12.267 34.9445 11.9273 40.0408 10.7809 41.8893C7.47995 47.2123 6.52365 53.2003 9.82916 56.3289C13.1347 59.4576 34.2182 59.5009 35.8155 52.3052C37.1602 46.2471 34.2746 45.5957 33.5723 40.5987C33.2547 38.3375 32.3806 33.5959 32.3806 33.5959" fill="#0A0A0A"/>
<path d="M30.3589 51.2502C30.3225 51.2455 29.9186 57.9468 22.1336 57.3626C16.7442 56.9587 14.8226 51.2404 14.6992 51.2404C15.2803 51.1168 16.2587 50.9373 16.5167 50.7995C17.3655 50.3436 18.4151 49.869 18.6891 48.2209C18.8473 47.2717 18.5791 42.4116 18.6616 41.4501L26.9343 43.2972C26.8186 45.327 26.0096 50.0324 28.8453 50.8652C29.317 51.0033 29.8253 51.13 30.3589 51.2502Z" fill="#E98862"/>
<path opacity="0.5" d="M27.0502 48.9424C26.9207 48.5248 26.8372 48.0943 26.8014 47.6585C26.7105 46.6641 26.7286 45.6627 26.8555 44.6722C25.1742 44.4453 23.5902 43.7512 22.2836 42.669C22.13 43.2363 21.2851 45.7152 21.5191 46.2544C21.9609 47.2736 24.0385 48.9424 27.0502 48.9424Z" fill="#0C0C0C"/>
<path d="M25.9805 46.8547C22.7188 47.1711 18.4988 45.8657 17.6246 41.5221L16.8358 37.603C15.9616 33.2595 17.5343 29.2793 21.6238 28.4562C25.7135 27.6336 29.4789 30.5389 30.3531 34.8825L30.7024 36.6176C31.0377 38.2841 31.7998 46.2916 25.9805 46.8547Z" fill="#E98862"/>
<path opacity="0.1" d="M23.9072 41.1629C24.4439 41.0988 24.841 40.7278 24.794 40.3341C24.747 39.9404 24.2738 39.6732 23.7371 39.7372C23.2003 39.8012 22.8033 40.1723 22.8503 40.566C22.8973 40.9597 23.3704 41.2269 23.9072 41.1629Z" fill="#0C0C0C"/>
<path opacity="0.1" d="M29.5788 39.5889C29.6263 39.9821 30.1001 40.2489 30.6368 40.1857C30.7296 40.1745 30.8209 40.1538 30.9094 40.1238C30.9344 39.6551 30.9358 39.2042 30.9222 38.7867C30.7731 38.7494 30.6184 38.7404 30.466 38.76C29.9292 38.8233 29.5323 39.1942 29.5788 39.5889Z" fill="#0C0C0C"/>
<path opacity="0.5" d="M27.2072 40.804C27.2098 40.8038 27.2125 40.8034 27.2151 40.8028C27.3808 40.7682 27.5445 40.7246 27.7055 40.672C27.9456 40.5916 28.2592 40.4597 28.2161 40.2425C28.1665 39.995 26.9506 37.4612 26.8126 37.1734C26.807 37.1605 26.7987 37.1487 26.7885 37.139C26.7782 37.1293 26.766 37.1217 26.7528 37.1167C26.7395 37.1118 26.7254 37.1096 26.7112 37.1102C26.6971 37.1109 26.6832 37.1144 26.6704 37.1205C26.6576 37.1266 26.6462 37.1353 26.6369 37.1459C26.6275 37.1565 26.6204 37.169 26.616 37.1824C26.6115 37.1959 26.6098 37.2101 26.611 37.2242C26.6122 37.2383 26.6162 37.252 26.6228 37.2646C27.1412 38.3436 27.9761 40.1178 28.0097 40.2844C27.9834 40.362 27.5851 40.5138 27.1739 40.5967C27.1603 40.5989 27.1472 40.6037 27.1355 40.611C27.1237 40.6182 27.1135 40.6277 27.1054 40.6389C27.0973 40.6501 27.0915 40.6628 27.0883 40.6763C27.0851 40.6897 27.0846 40.7036 27.0868 40.7173C27.089 40.7309 27.0939 40.744 27.1012 40.7557C27.1084 40.7675 27.1179 40.7777 27.1291 40.7858C27.1403 40.7939 27.153 40.7997 27.1664 40.8029C27.1799 40.8061 27.1938 40.8066 27.2075 40.8044L27.2072 40.804Z" fill="#0C0C0C"/>
<path d="M13.5727 39.0101L17.2391 38.294C20.0086 37.1358 20.7944 32.3091 20.7944 32.3091C20.7944 32.3091 24.2124 35.5643 32.3813 33.5958C32.3813 33.5958 30.6068 22.1921 18.5447 25.6544C14.6554 26.7705 11.9004 30.7349 12.3102 35.9857C12.5973 39.6644 13.5727 39.0101 13.5727 39.0101Z" fill="#0A0A0A"/>
<path d="M18.1449 42.7943C16.9021 43.0444 15.627 41.9176 15.3764 40.6745C15.1259 39.4314 15.9959 38.5436 17.2387 38.2933L18.0468 38.9973L19.2132 42.579L18.1449 42.7943Z" fill="#E98862"/>
<path d="M27.6936 35.1528C28.0046 34.9329 28.3682 34.7993 28.7475 34.7656C28.9381 34.7473 29.1304 34.7579 29.3178 34.7972C29.5068 34.8357 29.6902 34.8978 29.8637 34.982L29.8691 34.9845C29.8884 34.993 29.9101 34.9936 29.9298 34.9862C29.9495 34.9789 29.9656 34.9641 29.9745 34.9451C29.9834 34.9261 29.9846 34.9043 29.9777 34.8844C29.9708 34.8646 29.9564 34.8482 29.9376 34.8388C29.7537 34.7417 29.5584 34.6682 29.3561 34.6199C29.1524 34.5703 28.9425 34.5517 28.7333 34.5646C28.3095 34.5881 27.8998 34.7246 27.5468 34.9601C27.5336 34.969 27.5224 34.9805 27.5136 34.9938C27.5049 35.007 27.4988 35.0219 27.4959 35.0375C27.4929 35.0531 27.493 35.0692 27.4962 35.0847C27.4995 35.1003 27.5057 35.1151 27.5147 35.1282C27.5236 35.1414 27.5351 35.1526 27.5484 35.1613C27.5617 35.17 27.5766 35.176 27.5922 35.179C27.6078 35.1819 27.6239 35.1818 27.6394 35.1785C27.655 35.1752 27.6697 35.1689 27.6829 35.1599L27.6857 35.158L27.6936 35.1528Z" fill="#0C0C0C"/>
<path d="M24.3444 35.6157C23.9281 35.5329 23.4971 35.5633 23.0966 35.7038C22.8986 35.772 22.7119 35.8695 22.5429 35.9932C22.3745 36.1152 22.2222 36.2579 22.0895 36.4181C22.0761 36.434 22.0694 36.4545 22.0708 36.4752C22.0721 36.496 22.0815 36.5154 22.0969 36.5294C22.1123 36.5435 22.1325 36.551 22.1533 36.5504C22.1741 36.5498 22.1939 36.5412 22.2085 36.5264L22.2127 36.522C22.3408 36.3778 22.4864 36.2502 22.6462 36.1423C22.8043 36.0344 22.9779 35.9511 23.161 35.8951C23.5243 35.7809 23.9114 35.7651 24.2829 35.8492L24.2921 35.8516C24.3232 35.8591 24.3561 35.854 24.3835 35.8373C24.4109 35.8206 24.4305 35.7937 24.4381 35.7625C24.4456 35.7313 24.4405 35.6984 24.4238 35.671C24.4071 35.6437 24.3802 35.624 24.349 35.6165L24.3444 35.6157Z" fill="#0C0C0C"/>
<path d="M17.2416 38.2335C19.7061 37.316 20.524 35.6141 20.7758 34.3476C20.9388 33.5029 20.9236 32.6335 20.7311 31.7951L20.6548 31.8161C20.8445 32.6436 20.8591 33.5016 20.6979 34.3351C20.4492 35.5809 19.643 37.2556 17.2139 38.1596L17.2416 38.2335Z" fill="#0C0C0C"/>
<path d="M36.6992 52.0474L60.1007 59.8697L53.2301 62.9237L64.8988 38.9854L74.4353 43.4298L63.6089 67.7603C63.0613 68.9907 62.0893 69.983 60.8705 70.5559C59.6517 71.1287 58.2675 71.2439 56.9708 70.8804L56.7381 70.8145L32.9824 64.1449L36.6992 52.0474Z" fill="#C4D4FB"/>
<path d="M21.9884 55.6873C16.5952 55.4331 16.3682 50.8555 16.3682 50.8555C16.3682 50.8555 13.696 51.0282 11.9196 51.2685C9.0113 51.662 7.0927 52.6482 5.56579 54.1749C4.14551 55.5954 3.28081 57.1321 4.19581 66.9431C4.85834 74.047 4.39214 89.6725 4.39214 89.6725H37.2574C37.2574 89.6725 39.5523 67.098 39.8244 63.9007C40.3436 57.796 41.8106 56.4484 38.8384 53.3037C36.683 51.0232 31.1184 50.8555 28.8787 50.8558C28.8421 50.8558 29.3332 56.0336 21.9884 55.6873Z" fill="#C4D4FB"/>
<path d="M28.3005 41.6602C27.2407 42.199 26.0317 42.3694 24.8643 42.1444C24.8239 42.1369 24.7821 42.1409 24.7439 42.1562C24.7058 42.1715 24.6727 42.1973 24.6486 42.2306C24.6246 42.2639 24.6105 42.3034 24.608 42.3445C24.6056 42.3855 24.6148 42.4264 24.6347 42.4624C24.9828 43.0756 25.8082 44.1235 27.2244 43.6963C28.1388 43.4204 28.4844 42.4798 28.6126 41.8978C28.6213 41.8576 28.6184 41.8156 28.6042 41.777C28.59 41.7383 28.565 41.7045 28.5322 41.6796C28.4994 41.6546 28.4602 41.6395 28.4192 41.6361C28.3781 41.6327 28.3369 41.641 28.3005 41.6602Z" fill="white"/>
<path d="M28.3667 36.9472C28.6496 36.9472 28.8788 36.718 28.8788 36.4351C28.8788 36.1523 28.6496 35.9231 28.3667 35.9231C28.0839 35.9231 27.8547 36.1523 27.8547 36.4351C27.8547 36.718 28.0839 36.9472 28.3667 36.9472Z" fill="#0C0C0C"/>
<path d="M23.4462 37.8086C23.729 37.8086 23.9583 37.5793 23.9583 37.2965C23.9583 37.0137 23.729 36.7845 23.4462 36.7845C23.1634 36.7845 22.9341 37.0137 22.9341 37.2965C22.9341 37.5793 23.1634 37.8086 23.4462 37.8086Z" fill="#0C0C0C"/>
<path d="M39.7513 66.1249C39.748 66.1251 39.7447 66.1251 39.7413 66.1249C39.7206 66.1223 39.7017 66.1116 39.6888 66.095C39.6759 66.0785 39.6701 66.0576 39.6727 66.0368L40.1816 61.9113C40.1827 61.901 40.1858 61.8909 40.1909 61.8818C40.196 61.8727 40.2028 61.8647 40.211 61.8583C40.2193 61.8519 40.2287 61.8472 40.2388 61.8445C40.2489 61.8418 40.2594 61.8412 40.2697 61.8427C40.28 61.844 40.29 61.8473 40.299 61.8524C40.3081 61.8575 40.316 61.8644 40.3224 61.8726C40.3288 61.8808 40.3335 61.8901 40.3363 61.9002C40.339 61.9102 40.3398 61.9207 40.3385 61.931L39.8296 66.0562C39.8271 66.0752 39.8178 66.0926 39.8034 66.1053C39.7889 66.1179 39.7705 66.1249 39.7513 66.1249V66.1249Z" fill="#0C0C0C"/>
<path d="M122.941 34.2924C122.941 34.2924 120.981 32.0908 121.208 27.9677C121.384 24.7753 123.846 27.3571 123.846 27.3571C123.846 27.3571 123.996 25.0596 125.581 25.6066C127.167 26.1537 127.612 28.687 127.612 28.687" fill="#0C0C0C"/>
<path d="M133.959 27.5486C133.959 27.5486 141.877 30.029 136.767 40.41L136.041 40.3151L134.568 40.1229" fill="#0C0C0C"/>
<path d="M122.694 51.2334C122.731 51.2287 123.133 57.9077 130.892 57.3256C136.264 56.9231 138.179 51.2241 138.302 51.2241C137.723 51.1009 136.748 50.9219 136.491 50.7846C135.645 50.3301 134.598 49.8573 134.326 48.2147C134.168 47.2679 134.435 42.4248 134.353 41.4667L126.108 43.307C126.223 45.33 127.029 50.0199 124.203 50.85C123.733 50.9873 123.226 51.1135 122.694 51.2334Z" fill="#E98862"/>
<path opacity="0.52" d="M125.992 48.9334C126.121 48.5172 126.204 48.088 126.24 47.6536C126.331 46.6625 126.313 45.6644 126.186 44.6772C127.862 44.451 129.441 43.7593 130.743 42.6807C130.896 43.2461 131.738 45.7168 131.505 46.2542C131.065 47.27 128.994 48.9334 125.992 48.9334Z" fill="#0C0C0C"/>
<path d="M126.981 46.6716C130.228 47.0213 134.448 45.7667 135.366 41.4473L136.195 37.5498C137.112 33.2311 135.589 29.2466 131.522 28.382C127.455 27.5175 123.671 30.3729 122.752 34.6923L122.386 36.4178C122.27 37.0124 122.195 37.6142 122.161 38.219C122.06 39.8168 121.913 42.2474 122.65 44.0585C123.346 45.7683 124.906 46.448 126.981 46.6716Z" fill="#E98862"/>
<path d="M124.401 36.7207C124.684 36.7207 124.913 36.4914 124.913 36.2086C124.913 35.9258 124.684 35.6965 124.401 35.6965C124.119 35.6965 123.889 35.9258 123.889 36.2086C123.889 36.4914 124.119 36.7207 124.401 36.7207Z" fill="#0C0C0C"/>
<path d="M129.265 37.2328C129.548 37.2328 129.777 37.0035 129.777 36.7207C129.777 36.4379 129.548 36.2086 129.265 36.2086C128.982 36.2086 128.753 36.4379 128.753 36.7207C128.753 37.0035 128.982 37.2328 129.265 37.2328Z" fill="#0C0C0C"/>
<path d="M134.834 42.7095C136.07 42.9723 137.353 41.863 137.616 40.627C137.878 39.391 137.021 38.4966 135.785 38.2338L134.972 38.9266L133.771 42.4836L134.834 42.7095Z" fill="#E98862"/>
<path d="M133.999 40.4728C133.999 40.4728 134.802 34.2619 133.019 33.5131C131.833 33.0145 128.481 34.1715 125.807 33.0874C124.638 32.6128 123.423 32.684 123.191 33.235C123.099 33.4532 122.993 30.0339 125.392 27.9331C127.302 26.2603 132.374 26.6917 134.503 27.7893C140.396 30.8281 135.988 38.5547 135.988 38.5547L135.288 40.6112L133.999 40.4728Z" fill="#0C0C0C"/>
<g opacity="0.52">
<path d="M125.734 40.9172L125.726 40.9159C125.327 40.8322 124.668 40.647 124.73 40.3494C124.782 40.1025 126.018 37.578 126.159 37.291C126.171 37.2663 126.192 37.2474 126.218 37.2385C126.244 37.2296 126.273 37.2314 126.297 37.2435C126.322 37.2556 126.341 37.2771 126.35 37.3031C126.359 37.3291 126.357 37.3576 126.345 37.3823C125.797 38.5001 124.969 40.2241 124.933 40.392C124.958 40.4711 125.355 40.6262 125.768 40.7128C125.794 40.7186 125.817 40.7341 125.831 40.7561C125.846 40.7782 125.852 40.805 125.848 40.8312C125.843 40.8574 125.829 40.8809 125.808 40.8969C125.786 40.9129 125.76 40.9202 125.734 40.9172V40.9172Z" fill="#0C0C0C"/>
</g>
<path d="M125.642 34.6067C125.25 34.4092 124.813 34.3208 124.375 34.3509C124.16 34.3645 123.948 34.4102 123.747 34.4865C123.547 34.5611 123.358 34.6606 123.184 34.7826C123.155 34.8012 123.134 34.8305 123.126 34.8642C123.119 34.8978 123.125 34.9332 123.143 34.9627C123.161 34.9921 123.19 35.0132 123.223 35.0215C123.257 35.0298 123.292 35.0245 123.322 35.0068L123.331 35.0016C123.491 34.9024 123.663 34.8238 123.842 34.7675C124.019 34.7109 124.204 34.6815 124.39 34.6803C124.757 34.6749 125.119 34.7666 125.439 34.9462L125.451 34.9533C125.473 34.9667 125.498 34.9755 125.524 34.9792C125.55 34.9829 125.576 34.9815 125.602 34.975C125.627 34.9685 125.651 34.9571 125.671 34.9414C125.692 34.9256 125.71 34.906 125.723 34.8835C125.736 34.8609 125.745 34.836 125.748 34.8102C125.752 34.7843 125.75 34.758 125.744 34.7328C125.737 34.7075 125.725 34.6839 125.71 34.6631C125.694 34.6424 125.674 34.625 125.651 34.6119L125.642 34.6067Z" fill="#0C0C0C"/>
<path d="M128.57 35.3982C128.925 35.3069 129.299 35.3112 129.652 35.4107C129.832 35.4597 130.002 35.5355 130.159 35.6355C130.318 35.7361 130.463 35.8563 130.592 35.9932L130.6 36.0003C130.624 36.0239 130.656 36.0372 130.69 36.0374C130.724 36.0376 130.757 36.0247 130.782 36.0014C130.807 35.978 130.821 35.9461 130.823 35.9121C130.825 35.8782 130.813 35.845 130.791 35.8193C130.654 35.6566 130.497 35.5119 130.323 35.3885C130.148 35.2631 129.955 35.1645 129.751 35.0962C129.336 34.9544 128.89 34.9271 128.461 35.0171C128.436 35.0226 128.412 35.0331 128.39 35.0479C128.369 35.0628 128.351 35.0817 128.337 35.1035C128.308 35.1477 128.299 35.2013 128.31 35.2526C128.321 35.3039 128.352 35.3487 128.396 35.377C128.44 35.4054 128.494 35.4151 128.545 35.4039L128.555 35.4013L128.57 35.3982Z" fill="#0C0C0C"/>
<path d="M125.107 41.8754C126.26 42.1635 127.477 42.0591 128.564 41.5786C128.602 41.5622 128.644 41.5568 128.684 41.5631C128.725 41.5695 128.763 41.5872 128.794 41.6143C128.825 41.6414 128.847 41.6767 128.859 41.7162C128.87 41.7556 128.871 41.7976 128.859 41.8371C128.657 42.5127 128.087 43.7196 126.611 43.6196C125.658 43.5554 125.111 42.7159 124.855 42.1774C124.838 42.14 124.831 42.0984 124.836 42.0574C124.841 42.0164 124.858 41.9778 124.885 41.946C124.911 41.9143 124.946 41.8907 124.986 41.8782C125.025 41.8657 125.067 41.8647 125.107 41.8754V41.8754Z" fill="white"/>
<path d="M129.684 28.818C130.235 27.5242 129.969 26.1719 129.09 25.7975C128.211 25.4231 127.052 26.1683 126.501 27.462C125.95 28.7557 126.215 30.108 127.094 30.4824C127.973 30.8569 129.133 30.1117 129.684 28.818Z" fill="#0C0C0C"/>
<path d="M131.013 55.6873C136.406 55.4331 136.633 50.8555 136.633 50.8555C136.633 50.8555 139.305 51.0282 141.082 51.2685C143.99 51.662 145.909 52.6482 147.436 54.1749C148.856 55.5954 149.72 57.1321 148.805 66.9431C148.143 74.047 148.609 89.6725 148.609 89.6725H115.744C115.744 89.6725 113.449 67.0986 113.177 63.9007C112.658 57.796 111.191 56.4484 114.163 53.3037C116.318 51.0232 121.883 50.8555 124.123 50.8558C124.159 50.8558 123.669 56.0336 131.013 55.6873Z" fill="#C4D4FB"/>
<path d="M113.099 54.7175L104.602 72.7316L87.8453 60.1304L81.1897 68.9808L103.378 85.6667C103.577 85.8142 103.784 85.9495 103.999 86.0717C104.633 86.4269 105.331 86.6537 106.053 86.7393C106.775 86.8248 107.506 86.7674 108.205 86.5703C108.905 86.3731 109.559 86.0401 110.13 85.5903C110.7 85.1405 111.177 84.5827 111.532 83.9487L111.628 83.7773L124.592 60.6382L113.099 54.7175Z" fill="#C4D4FB"/>
<path d="M149.87 89.8307H0.203728C0.161772 89.8307 0.121534 89.8141 0.091867 89.7844C0.0621994 89.7547 0.0455322 89.7145 0.0455322 89.6725C0.0455322 89.6306 0.0621994 89.5903 0.091867 89.5607C0.121534 89.531 0.161772 89.5143 0.203728 89.5143H149.87C149.912 89.5143 149.952 89.531 149.982 89.5607C150.012 89.5903 150.029 89.6306 150.029 89.6725C150.029 89.7145 150.012 89.7547 149.982 89.7844C149.952 89.8141 149.912 89.8307 149.87 89.8307Z" fill="#292A2E"/>
<path d="M114.489 66.1423H37.1688V93.5373H114.489V66.1423Z" fill="white"/>
<path d="M114.565 93.6165H37.0925V66.0632H114.565V93.6165ZM37.2451 93.4583H114.412V66.2214H37.2451V93.4583Z" fill="#0C0C0C"/>
<path d="M33.2142 74.5147L38.1614 72.3051C38.2702 72.2566 38.3878 72.2312 38.5068 72.2307C38.6259 72.2301 38.7438 72.2543 38.853 72.3018C38.9621 72.3492 39.0602 72.4189 39.141 72.5064C39.2218 72.5939 39.2835 72.6972 39.3221 72.8098C39.3871 73.0199 39.3717 73.2466 39.2789 73.446C39.1862 73.6453 39.0227 73.8032 38.8202 73.8888L37.7593 74.3634L41.7792 74.4049C42.2263 74.4015 42.7768 74.6836 42.7474 75.1853C42.7487 75.3791 42.6843 75.5676 42.5646 75.72C42.445 75.8725 42.2772 75.9799 42.0887 76.0248C42.0898 76.029 42.0904 76.0333 42.0906 76.0376C42.0901 76.0409 42.0894 76.0441 42.0885 76.0473L42.7779 76.0424C42.9055 76.0415 43.0317 76.0692 43.1472 76.1233C43.2628 76.1774 43.3648 76.2565 43.4459 76.355C43.527 76.4535 43.5851 76.5689 43.6161 76.6927C43.647 76.8164 43.6499 76.9456 43.6246 77.0706C43.5806 77.2669 43.4706 77.4421 43.3129 77.5669C43.1552 77.6918 42.9594 77.7587 42.7583 77.7564L42.465 77.7585C42.4611 77.767 42.4558 77.7748 42.4492 77.7814C42.6477 77.826 42.8238 77.9397 42.9462 78.1022C43.0685 78.2648 43.129 78.4655 43.1169 78.6686C43.0973 78.8904 42.9947 79.0968 42.8297 79.2463C42.6646 79.3959 42.4492 79.4777 42.2265 79.4754L41.4978 79.4806C41.508 79.4877 41.5165 79.4972 41.5224 79.5082C41.5283 79.5192 41.5316 79.5314 41.532 79.5439C41.5313 79.5588 41.5264 79.5733 41.5177 79.5855C41.6835 79.6743 41.8155 79.8151 41.8935 79.9862C41.9714 80.1574 41.991 80.3494 41.9491 80.5327C41.9012 80.7243 41.7901 80.8942 41.6337 81.0148C41.4773 81.1353 41.2848 81.1996 41.0873 81.1972L34.9398 81.241C34.0798 81.2471 33.2377 80.9963 32.5212 80.5207C31.8047 80.0451 31.2466 79.3664 30.9183 78.5716V78.5716C30.6352 77.8862 30.6306 77.1175 30.9053 76.4287C31.18 75.7399 31.7125 75.1854 32.3895 74.8829L33.2142 74.5147Z" fill="#E98862"/>
<g opacity="0.2">
<path d="M38.1094 76.0028C38.1097 76.0236 38.1182 76.0434 38.133 76.058C38.1478 76.0726 38.1677 76.0808 38.1885 76.0808L42.0115 76.1151C42.0324 76.1153 42.0526 76.1072 42.0676 76.0925C42.0826 76.0778 42.0911 76.0577 42.0913 76.0367C42.0915 76.0158 42.0833 75.9956 42.0686 75.9806C42.0539 75.9656 42.0339 75.9571 42.0129 75.9569L38.1899 75.9225C38.1689 75.9225 38.1488 75.9308 38.134 75.9456C38.1192 75.9605 38.1108 75.9806 38.1108 76.0016L38.1094 76.0028Z" fill="#0C0C0C"/>
</g>
<g opacity="0.2">
<path d="M38.0477 77.6891C38.048 77.7098 38.0565 77.7297 38.0713 77.7443C38.0861 77.7589 38.106 77.767 38.1268 77.767L42.3932 77.8055C42.4142 77.8055 42.4343 77.7971 42.4491 77.7823C42.464 77.7675 42.4723 77.7474 42.4723 77.7264C42.4716 77.7056 42.463 77.6859 42.4483 77.6712C42.4337 77.6566 42.414 77.648 42.3932 77.6473L38.1268 77.6088C38.1164 77.6087 38.106 77.6107 38.0963 77.6146C38.0866 77.6186 38.0778 77.6244 38.0704 77.6317C38.0629 77.6391 38.057 77.6478 38.053 77.6575C38.049 77.6671 38.0469 77.6775 38.0469 77.6879L38.0477 77.6891Z" fill="#0C0C0C"/>
</g>
<g opacity="0.2">
<path d="M37.9704 79.5137C37.9706 79.5345 37.9791 79.5543 37.9939 79.5689C38.0087 79.5835 38.0287 79.5917 38.0495 79.5917L41.4527 79.6224C41.4737 79.6226 41.4939 79.6144 41.5089 79.5997C41.5238 79.585 41.5323 79.565 41.5325 79.544C41.5327 79.523 41.5246 79.5028 41.5099 79.4878C41.4952 79.4729 41.4751 79.4644 41.4541 79.4642L38.0509 79.4335C38.0299 79.4335 38.0098 79.4418 37.9949 79.4567C37.9801 79.4715 37.9718 79.4916 37.9718 79.5126L37.9704 79.5137Z" fill="#0C0C0C"/>
</g>
<path d="M34.6302 83.3235L7.20106 89.5588C6.28985 89.658 5.36806 89.5447 4.508 89.2277C3.64795 88.9108 2.87303 88.3989 2.24404 87.7322C1.61506 87.0655 1.14912 86.2621 0.882788 85.385C0.616456 84.508 0.556974 83.5812 0.709009 82.6773L3.84794 57.4292C4.10899 55.8776 4.9757 54.4933 6.25741 53.5808C7.53912 52.6683 9.13084 52.3023 10.6824 52.5633C12.234 52.8244 13.6183 53.6911 14.5308 54.9728C15.4433 56.2545 15.8093 57.8462 15.5483 59.3978L14.0367 77.4693L33.0936 73.1566L34.6302 83.3235Z" fill="#C4D4FB"/>
<path d="M10.1804 78.1794C10.1605 78.1793 10.1414 78.1716 10.1269 78.158C10.1125 78.1445 10.1036 78.1259 10.1021 78.1061C10.1007 78.0863 10.1067 78.0667 10.1191 78.0511C10.1314 78.0356 10.1492 78.0252 10.1688 78.0222L13.991 77.206C14.0013 77.2044 14.0118 77.2048 14.0219 77.2072C14.032 77.2097 14.0416 77.2141 14.0499 77.2203C14.0583 77.2265 14.0654 77.2343 14.0707 77.2433C14.076 77.2522 14.0795 77.2622 14.0809 77.2725C14.0839 77.2932 14.0787 77.3143 14.0662 77.3311C14.0538 77.348 14.0351 77.3592 14.0144 77.3623L10.1922 78.1785C10.1883 78.1791 10.1843 78.1794 10.1804 78.1794V78.1794Z" fill="#0C0C0C"/>
<path d="M8.02401 89.6725C8.00303 89.6739 7.98237 89.6669 7.96658 89.653C7.95078 89.6391 7.94114 89.6196 7.93977 89.5986C7.93841 89.5776 7.94544 89.557 7.9593 89.5412C7.97317 89.5254 7.99275 89.5157 8.01373 89.5144L34.4581 83.286L32.9597 73.2722L14.0165 77.3616C14.0042 77.3631 13.9918 77.3618 13.9801 77.3577C13.9685 77.3537 13.9579 77.347 13.9492 77.3382C13.9406 77.3293 13.9342 77.3184 13.9305 77.3066C13.9268 77.2948 13.926 77.2822 13.928 77.27L14.9906 66.9445C14.9922 66.9342 14.9959 66.9243 15.0013 66.9155C15.0068 66.9066 15.014 66.8989 15.0225 66.8928C15.031 66.8868 15.0406 66.8825 15.0508 66.8802C15.061 66.878 15.0715 66.8778 15.0818 66.8797C15.1025 66.8831 15.1209 66.8947 15.1331 66.9118C15.1452 66.9289 15.1501 66.9501 15.1466 66.9708L14.1025 77.1902L32.9965 73.0977C33.0067 73.0949 33.0173 73.0942 33.0278 73.0955C33.0382 73.0969 33.0483 73.1003 33.0574 73.1056C33.0665 73.111 33.0744 73.1181 33.0808 73.1265C33.0871 73.135 33.0917 73.1446 33.0943 73.1548L34.6308 83.3226C34.6357 83.3425 34.6326 83.3636 34.6222 83.3813C34.6117 83.399 34.5948 83.412 34.575 83.4175L8.0343 89.6719C8.03089 89.6724 8.02745 89.6726 8.02401 89.6725V89.6725Z" fill="#0C0C0C"/>
<path d="M119.787 79.2606L114.84 77.051C114.731 77.0025 114.614 76.9771 114.494 76.9766C114.375 76.976 114.258 77.0002 114.148 77.0477C114.039 77.0952 113.941 77.1648 113.86 77.2523C113.78 77.3398 113.718 77.4431 113.679 77.5557C113.614 77.7658 113.63 77.9925 113.722 78.1919C113.815 78.3913 113.979 78.5491 114.181 78.6347L115.242 79.1093L111.222 79.1508C110.775 79.1475 110.224 79.4295 110.254 79.9312C110.253 80.125 110.317 80.3135 110.437 80.466C110.556 80.6185 110.724 80.7259 110.913 80.7707C110.912 80.7749 110.911 80.7792 110.911 80.7835C110.911 80.7868 110.912 80.79 110.913 80.7932L110.224 80.7883C110.096 80.7874 109.97 80.815 109.854 80.8691C109.739 80.9232 109.637 81.0024 109.555 81.1009C109.474 81.1994 109.416 81.3147 109.385 81.4385C109.354 81.5623 109.351 81.6915 109.377 81.8165C109.421 82.0128 109.531 82.1879 109.688 82.3128C109.846 82.4376 110.042 82.5045 110.243 82.5023L110.536 82.5044C110.54 82.5129 110.546 82.5206 110.552 82.5273C110.354 82.5719 110.178 82.6856 110.055 82.8481C109.933 83.0107 109.872 83.2114 109.885 83.4145C109.904 83.6364 110.007 83.8427 110.172 83.9922C110.337 84.1418 110.552 84.2236 110.775 84.2213L111.504 84.2265C111.494 84.2336 111.485 84.243 111.479 84.254C111.473 84.265 111.47 84.2773 111.47 84.2898C111.47 84.3047 111.475 84.3192 111.484 84.3314C111.318 84.4202 111.186 84.561 111.108 84.7322C111.03 84.9033 111.01 85.0953 111.052 85.2787C111.1 85.4703 111.211 85.6401 111.368 85.7607C111.524 85.8813 111.717 85.9456 111.914 85.9431L118.062 85.9869C118.922 85.993 119.764 85.7422 120.481 85.2665C121.197 84.7908 121.755 84.112 122.083 83.317V83.317C122.366 82.6316 122.371 81.8629 122.096 81.1741C121.822 80.4853 121.289 79.9308 120.612 79.6284L119.787 79.2606Z" fill="#E98862"/>
<g opacity="0.2">
<path d="M114.892 80.7487C114.892 80.7695 114.883 80.7893 114.868 80.8039C114.854 80.8185 114.834 80.8267 114.813 80.8267L110.99 80.861C110.979 80.8611 110.969 80.8591 110.96 80.8553C110.95 80.8514 110.941 80.8456 110.934 80.8383C110.926 80.8311 110.92 80.8224 110.916 80.8128C110.912 80.8033 110.91 80.793 110.91 80.7826C110.91 80.7722 110.912 80.7619 110.916 80.7523C110.92 80.7427 110.925 80.7339 110.933 80.7265C110.94 80.7191 110.949 80.7132 110.958 80.7091C110.968 80.705 110.978 80.7029 110.988 80.7028L114.811 80.6683C114.832 80.6683 114.852 80.6766 114.867 80.6915C114.882 80.7063 114.89 80.7264 114.89 80.7474L114.892 80.7487Z" fill="#0C0C0C"/>
</g>
<g opacity="0.2">
<path d="M114.954 82.4349C114.953 82.4556 114.945 82.4753 114.93 82.4899C114.916 82.5044 114.896 82.5127 114.875 82.5129L110.609 82.5513C110.588 82.5513 110.568 82.543 110.553 82.5282C110.538 82.5133 110.53 82.4932 110.53 82.4722C110.53 82.4515 110.539 82.4318 110.554 82.4171C110.568 82.4024 110.588 82.3938 110.609 82.3931L114.875 82.3547C114.896 82.3547 114.916 82.363 114.931 82.3779C114.946 82.3927 114.954 82.4128 114.954 82.4338L114.954 82.4349Z" fill="#0C0C0C"/>
</g>
<g opacity="0.2">
<path d="M115.031 84.2595C115.031 84.2803 115.022 84.3001 115.008 84.3147C114.993 84.3293 114.973 84.3375 114.952 84.3375L111.549 84.3682C111.538 84.3683 111.528 84.3663 111.518 84.3625C111.509 84.3586 111.5 84.3528 111.493 84.3455C111.485 84.3383 111.479 84.3296 111.475 84.32C111.471 84.3105 111.469 84.3002 111.469 84.2898C111.469 84.2794 111.471 84.2691 111.475 84.2595C111.479 84.2499 111.484 84.2411 111.492 84.2337C111.499 84.2263 111.508 84.2204 111.517 84.2163C111.527 84.2122 111.537 84.2101 111.547 84.21L114.951 84.1793C114.972 84.1793 114.992 84.1877 115.006 84.2025C115.021 84.2173 115.03 84.2374 115.03 84.2584L115.031 84.2595Z" fill="#0C0C0C"/>
</g>
<path d="M119.953 88.0694L145.8 89.5588C146.711 89.658 147.633 89.5447 148.493 89.2277C149.353 88.9108 150.128 88.3989 150.757 87.7322C151.386 87.0655 151.852 86.2621 152.119 85.385C152.385 84.508 152.444 83.5812 152.292 82.6773L149.154 57.4284C149.025 56.6601 148.745 55.9249 148.332 55.2646C147.919 54.6043 147.379 54.0318 146.745 53.58C146.11 53.1282 145.392 52.8058 144.633 52.6312C143.874 52.4566 143.088 52.4333 142.32 52.5625C141.551 52.6918 140.816 52.9711 140.156 53.3845C139.495 53.7979 138.923 54.3374 138.471 54.972C138.019 55.6066 137.697 56.3241 137.522 57.0833C137.348 57.8425 137.324 58.6287 137.454 59.397L138.965 78.5759L120.067 77.9017L119.953 88.0694Z" fill="#C4D4FB"/>
<path d="M142.821 78.4958C142.841 78.4957 142.86 78.4881 142.874 78.4745C142.889 78.4609 142.898 78.4424 142.899 78.4226C142.901 78.4028 142.895 78.3831 142.882 78.3676C142.87 78.352 142.852 78.3416 142.833 78.3386L139.01 78.3134C139 78.3117 138.99 78.3121 138.98 78.3146C138.969 78.317 138.96 78.3215 138.951 78.3277C138.943 78.3339 138.936 78.3417 138.931 78.3506C138.925 78.3596 138.922 78.3695 138.92 78.3799C138.917 78.4006 138.923 78.4217 138.935 78.4386C138.948 78.4554 138.966 78.4666 138.987 78.4697L142.809 78.4949C142.813 78.4955 142.817 78.4958 142.821 78.4958Z" fill="#0C0C0C"/>
<path d="M144.978 89.6725C144.999 89.6739 145.019 89.6668 145.035 89.6529C145.051 89.6391 145.06 89.6195 145.062 89.5985C145.063 89.5775 145.056 89.5569 145.042 89.5411C145.028 89.5253 145.009 89.5157 144.988 89.5143L120.125 88.0325L120.2 78.0187L138.985 78.4696C138.997 78.4711 139.009 78.4698 139.021 78.4657C139.033 78.4617 139.043 78.455 139.052 78.4461C139.06 78.4372 139.067 78.4264 139.071 78.4146C139.074 78.4027 139.075 78.3902 139.073 78.378L138.011 66.9451C138.009 66.9348 138.005 66.925 138 66.9161C137.994 66.9072 137.987 66.8996 137.979 66.8935C137.97 66.8875 137.961 66.8832 137.95 66.8809C137.94 66.8786 137.93 66.8784 137.919 66.8803C137.909 66.882 137.899 66.8857 137.891 66.8912C137.882 66.8967 137.874 66.9039 137.868 66.9124C137.862 66.9208 137.858 66.9304 137.855 66.9405C137.853 66.9507 137.853 66.9611 137.854 66.9714L138.899 78.2982L120.163 77.8442C120.153 77.8414 120.143 77.8407 120.132 77.842C120.122 77.8434 120.112 77.8468 120.103 77.8521C120.093 77.8575 120.086 77.8646 120.079 77.873C120.073 77.8815 120.068 77.8911 120.066 77.9013L119.953 88.0691C119.948 88.089 119.951 88.1101 119.961 88.1278C119.972 88.1455 119.989 88.1585 120.009 88.164L144.967 89.6709C144.97 89.6717 144.974 89.6723 144.978 89.6725V89.6725Z" fill="#0C0C0C"/>
<g clip-path="url(#clip0_127_273)">
<path d="M99.7339 75.0871C100.754 75.0871 101.588 75.8796 101.588 76.8483V87.4154C101.588 88.3841 100.754 89.1766 99.7339 89.1766H84.9028C83.8832 89.1766 83.0489 88.3841 83.0489 87.4154V76.8483C83.0489 75.8796 83.8832 75.0871 84.9028 75.0871H87.8412L89.5375 73.3259H95.0992L96.7955 75.0871H99.7339ZM99.7339 87.4154V76.8483H84.9028V87.4154H99.7339ZM94.1722 81.2513L91.3914 84.5271L89.5375 82.1319L86.7567 85.6542H97.88L94.1722 81.2513Z" fill="#C4D4FB"/>
</g>
<path d="M55.7505 73.3259L54.139 75.0871H51.3475C50.3788 75.0871 49.5863 75.8796 49.5863 76.8483V87.4154C49.5863 88.3841 50.3788 89.1766 51.3475 89.1766H65.437C66.4057 89.1766 67.1982 88.3841 67.1982 87.4154V76.8483C67.1982 75.8796 66.4057 75.0871 65.437 75.0871H62.6455L61.034 73.3259H55.7505ZM58.3923 86.5348C55.9618 86.5348 53.9893 84.5623 53.9893 82.1319C53.9893 79.7014 55.9618 77.7289 58.3923 77.7289C60.8227 77.7289 62.7952 79.7014 62.7952 82.1319C62.7952 84.5623 60.8227 86.5348 58.3923 86.5348Z" fill="#C4D4FB"/>
<path d="M58.3923 85.6542L59.493 83.2326L61.9146 82.1319L59.493 81.0311L58.3923 78.6095L57.2915 81.0311L54.8699 82.1319L57.2915 83.2326L58.3923 85.6542Z" fill="#C4D4FB"/>
<defs>
<clipPath id="clip0_127_273">
<rect width="22.2466" height="21.1343" fill="white" transform="translate(81.195 70.6841)"/>
</clipPath>
</defs>
</svg>
